<svg width="20" height="20" viewBox="0 0 20 20" fill="none" xmlns="http://www.w3.org/2000/svg">
<path d="M4.16675 3.33333C4.16675 2.8731 4.53984 2.5 5.00008 2.5C5.46032 2.5 5.83341 2.8731 5.83341 3.33333V16.6667C5.83341 17.1269 5.46032 17.5 5.00008 17.5C4.53984 17.5 4.16675 17.1269 4.16675 16.6667V3.33333Z" fill="#3D3D3D"/>
<path d="M7.50008 8.33333C7.50008 7.8731 7.87318 7.5 8.33341 7.5C8.79365 7.5 9.16675 7.8731 9.16675 8.33333V16.6667C9.16675 17.1269 8.79365 17.5 8.33341 17.5C7.87318 17.5 7.50008 17.1269 7.50008 16.6667V8.33333Z" fill="#3D3D3D"/>
<path d="M10.8334 11.6667C10.8334 11.2064 11.2065 10.8333 11.6667 10.8333C12.127 10.8333 12.5001 11.2064 12.5001 11.6667V16.6667C12.5001 17.1269 12.127 17.5 11.6667 17.5C11.2065 17.5 10.8334 17.1269 10.8334 16.6667V11.6667Z" fill="#3D3D3D"/>
<path d="M14.1667 5C14.1667 4.53976 14.5398 4.16667 15.0001 4.16667C15.4603 4.16667 15.8334 4.53976 15.8334 5V16.6667C15.8334 17.1269 15.4603 17.5 15.0001 17.5C14.5398 17.5 14.1667 17.1269 14.1667 16.6667V5Z" fill="#3D3D3D"/>
</svg>
