<svg width="16" height="17" viewBox="0 0 16 17" fill="none" xmlns="http://www.w3.org/2000/svg">
<path d="M1.33337 3.16668C1.33337 2.4303 1.93033 1.83334 2.66671 1.83334H7.33337C8.06975 1.83334 8.66671 2.4303 8.66671 3.16668V4.50001C8.66671 4.8682 8.36823 5.16668 8.00004 5.16668C7.63185 5.16668 7.33337 4.8682 7.33337 4.50001V3.16668L2.66671 3.16668V13.8333H7.33337V12.5C7.33337 12.1318 7.63185 11.8333 8.00004 11.8333C8.36823 11.8333 8.66671 12.1318 8.66671 12.5V13.8333C8.66671 14.5697 8.06975 15.1667 7.33337 15.1667H2.66671C1.93033 15.1667 1.33337 14.5697 1.33337 13.8333V3.16668Z" fill="#FB7285"/>
<path d="M12.3906 9.16668L10.862 10.6953C10.6016 10.9556 10.6016 11.3777 10.862 11.6381C11.1223 11.8984 11.5444 11.8984 11.8048 11.6381L14.3772 9.0657C14.6896 8.75328 14.6896 8.24675 14.3772 7.93433L11.8048 5.36194C11.5444 5.10159 11.1223 5.10159 10.862 5.36194C10.6016 5.62229 10.6016 6.0444 10.862 6.30475L12.3906 7.83334L5.33337 7.83334V9.16668L12.3906 9.16668Z" fill="#FB7285"/>
</svg>
