<svg width="20" height="20" viewBox="0 0 20 20" fill="none" xmlns="http://www.w3.org/2000/svg">
<path d="M8.21426 6.13029L7.6741 3.69957C7.57242 3.24204 7.16661 2.9165 6.69791 2.9165H3.9034C3.35699 2.9165 2.90799 3.35559 2.93836 3.90115C3.05986 6.08391 3.69284 8.22769 4.79223 10.1226C6.01415 12.2287 7.77121 13.9858 9.87731 15.2077C11.7859 16.315 13.9022 16.9131 16.084 17.0517C16.6352 17.0867 17.0834 16.6355 17.0834 16.0832V13.302C17.0834 12.8333 16.7579 12.4275 16.3003 12.3258L13.8696 11.7857C13.5357 11.7115 13.187 11.8131 12.9452 12.0551L12.3917 12.6092C12.0873 12.9139 11.6196 12.9934 11.2477 12.7762C9.5845 11.8047 8.19518 10.4154 7.22377 8.7522C7.00655 8.38029 7.08599 7.9126 7.3907 7.60821L7.9448 7.05471C8.18682 6.81294 8.28847 6.46423 8.21426 6.13029Z" stroke="#3D3D3D" stroke-linejoin="round"/>
</svg>
