<svg width="20" height="20" viewBox="0 0 20 20" fill="none" xmlns="http://www.w3.org/2000/svg">
<mask id="path-1-inside-1_545_1596" fill="white">
<path fill-rule="evenodd" clip-rule="evenodd" d="M9.16739 3.3335C9.4851 3.33382 9.75202 3.57246 9.78778 3.88815C10.0164 5.9066 10.6298 7.38044 11.6249 8.39387C12.6162 9.40348 14.0591 10.0299 16.097 10.2109C16.4198 10.2396 16.6671 10.5102 16.6667 10.8342C16.6664 11.1582 16.4185 11.4282 16.0956 11.4562C14.0912 11.6297 12.618 12.2555 11.6034 13.2701C10.5888 14.2848 9.96293 15.758 9.78942 17.7624C9.76148 18.0852 9.49147 18.3331 9.16745 18.3335C8.84343 18.3339 8.57287 18.0865 8.5442 17.7638C8.36317 15.7258 7.73674 14.283 6.72712 13.2916C5.71369 12.2965 4.23985 11.6832 2.2214 11.4545C1.90571 11.4188 1.66707 11.1518 1.66675 10.8341C1.66642 10.5164 1.90451 10.249 2.22014 10.2126C4.2725 9.97589 5.71567 9.36227 6.7056 8.37234C7.69552 7.38242 8.30915 5.93925 8.54586 3.88688C8.58227 3.57126 8.84967 3.33317 9.16739 3.3335ZM5.07892 10.8326C6.05974 11.1996 6.90543 11.7149 7.6029 12.3997C8.28195 13.0665 8.79964 13.8735 9.16583 14.8183C9.53001 13.8752 10.045 13.0607 10.7195 12.3863C11.394 11.7118 12.2085 11.1968 13.1516 10.8326C12.2067 10.4664 11.3997 9.9487 10.733 9.26965C10.0481 8.57218 9.53286 7.72649 9.16583 6.74566C8.79662 7.72904 8.27886 8.56685 7.58948 9.25623C6.9001 9.94561 6.06229 10.4634 5.07892 10.8326Z"/>
<path d="M16.4916 1.0492C16.4777 0.926425 16.3739 0.833623 16.2503 0.833496C16.1268 0.83337 16.0228 0.92596 16.0086 1.0487C15.9166 1.84685 15.6779 2.40808 15.293 2.79305C14.908 3.17802 14.3468 3.41665 13.5486 3.50871C13.4259 3.52286 13.3333 3.62685 13.3334 3.75041C13.3335 3.87397 13.4263 3.97777 13.5491 3.99167C14.3341 4.08058 14.9072 4.31912 15.3013 4.7061C15.694 5.09163 15.9376 5.65274 16.008 6.44528C16.0191 6.57079 16.1243 6.66697 16.2504 6.66683C16.3764 6.66669 16.4814 6.57027 16.4922 6.44473C16.5597 5.66523 16.8031 5.09232 17.1977 4.69775C17.5922 4.30317 18.1652 4.05979 18.9447 3.99231C19.0702 3.98145 19.1666 3.87644 19.1667 3.75044C19.1669 3.62443 19.0707 3.51921 18.9452 3.50806C18.1527 3.43766 17.5916 3.19405 17.206 2.80142C16.819 2.40731 16.5805 1.83415 16.4916 1.0492Z"/>
</mask>
<path fill-rule="evenodd" clip-rule="evenodd" d="M9.16739 3.3335C9.4851 3.33382 9.75202 3.57246 9.78778 3.88815C10.0164 5.9066 10.6298 7.38044 11.6249 8.39387C12.6162 9.40348 14.0591 10.0299 16.097 10.2109C16.4198 10.2396 16.6671 10.5102 16.6667 10.8342C16.6664 11.1582 16.4185 11.4282 16.0956 11.4562C14.0912 11.6297 12.618 12.2555 11.6034 13.2701C10.5888 14.2848 9.96293 15.758 9.78942 17.7624C9.76148 18.0852 9.49147 18.3331 9.16745 18.3335C8.84343 18.3339 8.57287 18.0865 8.5442 17.7638C8.36317 15.7258 7.73674 14.283 6.72712 13.2916C5.71369 12.2965 4.23985 11.6832 2.2214 11.4545C1.90571 11.4188 1.66707 11.1518 1.66675 10.8341C1.66642 10.5164 1.90451 10.249 2.22014 10.2126C4.2725 9.97589 5.71567 9.36227 6.7056 8.37234C7.69552 7.38242 8.30915 5.93925 8.54586 3.88688C8.58227 3.57126 8.84967 3.33317 9.16739 3.3335ZM5.07892 10.8326C6.05974 11.1996 6.90543 11.7149 7.6029 12.3997C8.28195 13.0665 8.79964 13.8735 9.16583 14.8183C9.53001 13.8752 10.045 13.0607 10.7195 12.3863C11.394 11.7118 12.2085 11.1968 13.1516 10.8326C12.2067 10.4664 11.3997 9.9487 10.733 9.26965C10.0481 8.57218 9.53286 7.72649 9.16583 6.74566C8.79662 7.72904 8.27886 8.56685 7.58948 9.25623C6.9001 9.94561 6.06229 10.4634 5.07892 10.8326Z" fill="#3D3D3D"/>
<path d="M16.4916 1.0492C16.4777 0.926425 16.3739 0.833623 16.2503 0.833496C16.1268 0.83337 16.0228 0.92596 16.0086 1.0487C15.9166 1.84685 15.6779 2.40808 15.293 2.79305C14.908 3.17802 14.3468 3.41665 13.5486 3.50871C13.4259 3.52286 13.3333 3.62685 13.3334 3.75041C13.3335 3.87397 13.4263 3.97777 13.5491 3.99167C14.3341 4.08058 14.9072 4.31912 15.3013 4.7061C15.694 5.09163 15.9376 5.65274 16.008 6.44528C16.0191 6.57079 16.1243 6.66697 16.2504 6.66683C16.3764 6.66669 16.4814 6.57027 16.4922 6.44473C16.5597 5.66523 16.8031 5.09232 17.1977 4.69775C17.5922 4.30317 18.1652 4.05979 18.9447 3.99231C19.0702 3.98145 19.1666 3.87644 19.1667 3.75044C19.1669 3.62443 19.0707 3.51921 18.9452 3.50806C18.1527 3.43766 17.5916 3.19405 17.206 2.80142C16.819 2.40731 16.5805 1.83415 16.4916 1.0492Z" fill="#3D3D3D"/>
<path d="M9.78778 3.88815L10.1742 3.84438L10.1742 3.84438L9.78778 3.88815ZM9.16739 3.3335L9.16699 3.72239L9.16699 3.72239L9.16739 3.3335ZM11.6249 8.39387L11.3474 8.66633L11.3474 8.66633L11.6249 8.39387ZM16.097 10.2109L16.0626 10.5983L16.0626 10.5983L16.097 10.2109ZM16.6667 10.8342L17.0556 10.8346L17.0556 10.8346L16.6667 10.8342ZM16.0956 11.4562L16.1292 11.8436L16.1292 11.8436L16.0956 11.4562ZM11.6034 13.2701L11.3284 12.9952L11.3284 12.9952L11.6034 13.2701ZM9.78942 17.7624L10.1769 17.7959L10.1769 17.7959L9.78942 17.7624ZM9.16745 18.3335L9.16789 18.7224L9.16789 18.7224L9.16745 18.3335ZM8.5442 17.7638L8.93156 17.7294L8.93156 17.7294L8.5442 17.7638ZM6.72712 13.2916L6.99958 13.0141L6.99958 13.0141L6.72712 13.2916ZM2.2214 11.4545L2.17764 11.8409L2.17764 11.8409L2.2214 11.4545ZM1.66675 10.8341L2.05564 10.8337L2.05564 10.8337L1.66675 10.8341ZM2.22014 10.2126L2.26469 10.5989L2.26469 10.5989L2.22014 10.2126ZM6.7056 8.37234L6.43061 8.09736L6.43061 8.09736L6.7056 8.37234ZM8.54586 3.88688L8.93219 3.93144L8.93219 3.93144L8.54586 3.88688ZM7.6029 12.3997L7.33044 12.6772L7.33044 12.6772L7.6029 12.3997ZM5.07892 10.8326L4.94223 10.4685C4.79044 10.5255 4.68994 10.6707 4.69003 10.8328C4.69012 10.9949 4.79078 11.14 4.94262 11.1968L5.07892 10.8326ZM9.16583 14.8183L8.80322 14.9589C8.86127 15.1087 9.00544 15.2073 9.16607 15.2072C9.3267 15.2071 9.47075 15.1083 9.52861 14.9584L9.16583 14.8183ZM13.1516 10.8326L13.2917 11.1954C13.4415 11.1375 13.5404 10.9935 13.5405 10.8328C13.5406 10.6722 13.4419 10.528 13.2921 10.47L13.1516 10.8326ZM10.733 9.26965L11.0105 8.99719L11.0105 8.99718L10.733 9.26965ZM9.16583 6.74566L9.53005 6.60937C9.47323 6.45753 9.32817 6.35686 9.16604 6.35678C9.00391 6.35669 8.85874 6.45719 8.80175 6.60897L9.16583 6.74566ZM16.2503 0.833496L16.2507 0.444608L16.2507 0.444608L16.2503 0.833496ZM16.4916 1.0492L16.878 1.00543L16.878 1.00543L16.4916 1.0492ZM16.0086 1.0487L16.395 1.09326L16.395 1.09326L16.0086 1.0487ZM15.293 2.79305L15.018 2.51806L15.018 2.51806L15.293 2.79305ZM13.5486 3.50871L13.5932 3.89504L13.5932 3.89504L13.5486 3.50871ZM13.3334 3.75041L12.9445 3.75081L12.9445 3.75081L13.3334 3.75041ZM13.5491 3.99167L13.5053 4.37809L13.5053 4.37809L13.5491 3.99167ZM15.3013 4.7061L15.5738 4.42862L15.5738 4.42862L15.3013 4.7061ZM16.008 6.44528L15.6206 6.47969L15.6206 6.47969L16.008 6.44528ZM16.2504 6.66683L16.2508 7.05572L16.2508 7.05572L16.2504 6.66683ZM16.4922 6.44473L16.8797 6.47827L16.8797 6.47827L16.4922 6.44473ZM17.1977 4.69775L16.9227 4.42276L16.9227 4.42276L17.1977 4.69775ZM18.9447 3.99231L18.9782 4.37975L18.9782 4.37975L18.9447 3.99231ZM19.1667 3.75044L19.5556 3.75088L19.5556 3.75087L19.1667 3.75044ZM18.9452 3.50806L18.9796 3.1207L18.9796 3.1207L18.9452 3.50806ZM17.206 2.80142L16.9285 3.07388L16.9285 3.07388L17.206 2.80142ZM9.78778 3.88815L10.1742 3.84438C10.1162 3.33225 9.68319 2.94513 9.16778 2.94461L9.16739 3.3335L9.16699 3.72239C9.28702 3.72251 9.38785 3.81266 9.40136 3.93192L9.78778 3.88815ZM11.6249 8.39387L11.9024 8.1214C10.9877 7.1899 10.3968 5.8093 10.1742 3.84438L9.78778 3.88815L9.40136 3.93192C9.63605 6.0039 10.2718 7.57098 11.3474 8.66633L11.6249 8.39387ZM16.097 10.2109L16.1315 9.82358C14.1564 9.64814 12.811 9.04674 11.9024 8.1214L11.6249 8.39387L11.3474 8.66633C12.4215 9.76023 13.9618 10.4117 16.0626 10.5983L16.097 10.2109ZM16.6667 10.8342L17.0556 10.8346C17.0562 10.309 16.655 9.87009 16.1315 9.82358L16.097 10.2109L16.0626 10.5983C16.1846 10.6091 16.278 10.7114 16.2779 10.8338L16.6667 10.8342ZM16.0956 11.4562L16.1292 11.8436C16.6529 11.7983 17.055 11.3603 17.0556 10.8346L16.6667 10.8342L16.2779 10.8338C16.2777 10.9562 16.1841 11.0582 16.0621 11.0687L16.0956 11.4562ZM11.6034 13.2701L11.8784 13.5451C12.8109 12.6126 14.1881 12.0116 16.1292 11.8436L16.0956 11.4562L16.0621 11.0687C13.9944 11.2477 12.4251 11.8984 11.3284 12.9952L11.6034 13.2701ZM9.78942 17.7624L10.1769 17.7959C10.3449 15.8548 10.9459 14.4777 11.8784 13.5451L11.6034 13.2701L11.3284 12.9952C10.2317 14.0919 9.58097 15.6611 9.40198 17.7289L9.78942 17.7624ZM9.16745 18.3335L9.16789 18.7224C9.69351 18.7218 10.1315 18.3196 10.1769 17.7959L9.78942 17.7624L9.40198 17.7289C9.39142 17.8508 9.28942 17.9445 9.16701 17.9446L9.16745 18.3335ZM8.5442 17.7638L8.15684 17.7982C8.20334 18.3218 8.64226 18.723 9.16789 18.7224L9.16745 18.3335L9.16701 17.9446C9.04461 17.9447 8.94239 17.8513 8.93156 17.7294L8.5442 17.7638ZM6.72712 13.2916L6.45465 13.5691C7.37999 14.4777 7.98139 15.8231 8.15684 17.7982L8.5442 17.7638L8.93156 17.7294C8.74495 15.6286 8.09349 14.0883 6.99958 13.0141L6.72712 13.2916ZM2.2214 11.4545L2.17764 11.8409C4.14256 12.0635 5.52315 12.6545 6.45465 13.5691L6.72712 13.2916L6.99958 13.0141C5.90423 11.9386 4.33715 11.3028 2.26517 11.0681L2.2214 11.4545ZM1.66675 10.8341L1.27786 10.8345C1.27839 11.3499 1.6655 11.7829 2.17764 11.8409L2.2214 11.4545L2.26517 11.0681C2.14591 11.0546 2.05576 10.9538 2.05564 10.8337L1.66675 10.8341ZM2.22014 10.2126L2.17558 9.82628C1.66357 9.88534 1.27733 10.3191 1.27786 10.8345L1.66675 10.8341L2.05564 10.8337C2.05551 10.7137 2.14546 10.6127 2.26469 10.5989L2.22014 10.2126ZM6.7056 8.37234L6.43061 8.09736C5.52326 9.00471 4.17482 9.59569 2.17558 9.82628L2.22014 10.2126L2.26469 10.5989C4.37018 10.3561 5.90808 9.71983 6.98058 8.64733L6.7056 8.37234ZM8.54586 3.88688L8.15954 3.84233C7.92895 5.84157 7.33796 7.19001 6.43061 8.09736L6.7056 8.37234L6.98058 8.64733C8.05309 7.57483 8.68935 6.03693 8.93219 3.93144L8.54586 3.88688ZM9.16739 3.3335L9.16778 2.94461C8.65238 2.94408 8.21859 3.33031 8.15954 3.84233L8.54586 3.88688L8.93219 3.93144C8.94594 3.81221 9.04696 3.72226 9.16699 3.72239L9.16739 3.3335ZM7.6029 12.3997L7.87537 12.1222C7.13408 11.3944 6.24001 10.8518 5.21521 10.4684L5.07892 10.8326L4.94262 11.1968C5.87948 11.5474 6.67678 12.0354 7.33044 12.6772L7.6029 12.3997ZM9.16583 14.8183L9.52844 14.6778C9.14408 13.6861 8.59728 12.8311 7.87537 12.1222L7.6029 12.3997L7.33044 12.6772C7.96662 13.3019 8.45519 14.0609 8.80322 14.9589L9.16583 14.8183ZM10.7195 12.3863L10.4445 12.1113C9.72818 12.8276 9.18489 13.6894 8.80305 14.6783L9.16583 14.8183L9.52861 14.9584C9.87514 14.061 10.3619 13.2938 10.9945 12.6612L10.7195 12.3863ZM13.1516 10.8326L13.0115 10.4698C12.0227 10.8516 11.1609 11.3949 10.4445 12.1113L10.7195 12.3863L10.9945 12.6612C11.6271 12.0287 12.3943 11.5419 13.2917 11.1954L13.1516 10.8326ZM10.733 9.26965L10.4555 9.54212C11.1643 10.264 12.0193 10.8108 13.0111 11.1952L13.1516 10.8326L13.2921 10.47C12.3941 10.1219 11.6351 9.63337 11.0105 8.99719L10.733 9.26965ZM9.16583 6.74566L8.8016 6.88196C9.18509 7.90676 9.7276 8.80083 10.4555 9.54212L10.733 9.26965L11.0105 8.99718C10.3686 8.34353 9.88063 7.54623 9.53005 6.60937L9.16583 6.74566ZM7.58948 9.25623L7.86447 9.53121C8.59793 8.79775 9.14377 7.9108 9.5299 6.88235L9.16583 6.74566L8.80175 6.60897C8.44947 7.54728 7.95979 8.33594 7.31449 8.98124L7.58948 9.25623ZM5.07892 10.8326L5.21561 11.1966C6.24405 10.8105 7.131 10.2647 7.86447 9.53121L7.58948 9.25623L7.31449 8.98124C6.6692 9.62654 5.88053 10.1162 4.94223 10.4685L5.07892 10.8326ZM16.2503 0.833496L16.2499 1.22238C16.1758 1.22231 16.1135 1.16663 16.1052 1.09297L16.4916 1.0492L16.878 1.00543C16.8419 0.68622 16.572 0.444936 16.2507 0.444608L16.2503 0.833496ZM16.0086 1.0487L16.395 1.09326C16.3865 1.16691 16.3241 1.22246 16.2499 1.22238L16.2503 0.833496L16.2507 0.444608C15.9295 0.44428 15.6591 0.685015 15.6223 1.00414L16.0086 1.0487ZM15.293 2.79305L15.568 3.06803C16.0355 2.60049 16.2968 1.94453 16.395 1.09326L16.0086 1.0487L15.6223 1.00414C15.5364 1.74916 15.3204 2.21567 15.018 2.51806L15.293 2.79305ZM13.5486 3.50871L13.5932 3.89504C14.4444 3.79685 15.1004 3.53558 15.568 3.06803L15.293 2.79305L15.018 2.51806C14.7156 2.82046 14.2491 3.03645 13.5041 3.12238L13.5486 3.50871ZM13.3334 3.75041L13.7223 3.75001C13.7224 3.82415 13.6668 3.88654 13.5932 3.89504L13.5486 3.50871L13.5041 3.12238C13.1849 3.15919 12.9442 3.42956 12.9445 3.75081L13.3334 3.75041ZM13.5491 3.99167L13.5929 3.60526C13.6665 3.6136 13.7222 3.67588 13.7223 3.75001L13.3334 3.75041L12.9445 3.75081C12.9449 4.07205 13.1861 4.34194 13.5053 4.37809L13.5491 3.99167ZM15.3013 4.7061L15.5738 4.42862C15.0978 3.96119 14.4314 3.70023 13.5929 3.60526L13.5491 3.99167L13.5053 4.37809C14.2368 4.46094 14.7167 4.67705 15.0289 4.98359L15.3013 4.7061ZM16.008 6.44528L16.3953 6.41087C16.3194 5.55548 16.0507 4.89691 15.5738 4.42862L15.3013 4.7061L15.0289 4.98359C15.3372 5.28636 15.5558 5.75 15.6206 6.47969L16.008 6.44528ZM16.2504 6.66683L16.2499 6.27794C16.3255 6.27786 16.3887 6.33556 16.3953 6.41087L16.008 6.44528L15.6206 6.47969C15.6496 6.80602 15.9232 7.05609 16.2508 7.05572L16.2504 6.66683ZM16.4922 6.44473L16.1048 6.4112C16.1113 6.33587 16.1743 6.27803 16.2499 6.27794L16.2504 6.66683L16.2508 7.05572C16.5784 7.05535 16.8514 6.80467 16.8797 6.47827L16.4922 6.44473ZM17.1977 4.69775L16.9227 4.42276C16.446 4.89944 16.1777 5.56838 16.1048 6.4112L16.4922 6.44473L16.8797 6.47827C16.9417 5.76209 17.1602 5.28521 17.4727 4.97273L17.1977 4.69775ZM18.9447 3.99231L18.9111 3.60487C18.0683 3.67783 17.3994 3.94608 16.9227 4.42276L17.1977 4.69775L17.4727 4.97273C17.7851 4.66026 18.262 4.44175 18.9782 4.37975L18.9447 3.99231ZM19.1667 3.75044L18.7779 3.75C18.7779 3.67439 18.8358 3.61139 18.9111 3.60487L18.9447 3.99231L18.9782 4.37975C19.3046 4.3515 19.5553 4.07849 19.5556 3.75088L19.1667 3.75044ZM18.9452 3.50806L18.9108 3.89542C18.8355 3.88873 18.7778 3.8256 18.7779 3.75L19.1667 3.75044L19.5556 3.75087C19.556 3.42326 19.3059 3.14969 18.9796 3.1207L18.9452 3.50806ZM17.206 2.80142L16.9285 3.07388C17.3968 3.5508 18.0554 3.81944 18.9108 3.89542L18.9452 3.50806L18.9796 3.1207C18.2499 3.05588 17.7863 2.8373 17.4835 2.52895L17.206 2.80142ZM16.4916 1.0492L16.1052 1.09297C16.2001 1.93144 16.4611 2.59785 16.9285 3.07388L17.206 2.80142L17.4835 2.52895C17.177 2.21677 16.9609 1.73685 16.878 1.00543L16.4916 1.0492Z" fill="#3D3D3D" mask="url(#path-1-inside-1_545_1596)"/>
</svg>
