<svg width="20" height="20" viewBox="0 0 20 20" fill="none" xmlns="http://www.w3.org/2000/svg">
<path fill-rule="evenodd" clip-rule="evenodd" d="M3.73052 12.675C4.82578 11.1482 6.76553 9.99984 9.99996 9.99984C13.2344 9.99984 15.1741 11.1482 16.2694 12.675C17.3279 14.1506 17.4965 15.8419 17.4999 16.7778C17.5033 17.7189 16.7143 18.3332 15.9054 18.3332H4.0945C3.2856 18.3332 2.49663 17.7189 2.50001 16.7778C2.50338 15.8419 2.67198 14.1506 3.73052 12.675ZM4.16815 16.6665H15.8318C15.8146 15.8731 15.6439 14.6623 14.9151 13.6465C14.1862 12.6303 12.7957 11.6665 9.99996 11.6665C7.2042 11.6665 5.81373 12.6303 5.08478 13.6465C4.35604 14.6623 4.18536 15.8731 4.16815 16.6665Z" fill="#3D3D3D"/>
<path fill-rule="evenodd" clip-rule="evenodd" d="M10 6.6665C10.9205 6.6665 11.6667 5.92031 11.6667 4.99984C11.6667 4.07936 10.9205 3.33317 10 3.33317C9.07957 3.33317 8.33337 4.07936 8.33337 4.99984C8.33337 5.92031 9.07957 6.6665 10 6.6665ZM10 8.33317C11.841 8.33317 13.3334 6.84079 13.3334 4.99984C13.3334 3.15889 11.841 1.6665 10 1.6665C8.15909 1.6665 6.66671 3.15889 6.66671 4.99984C6.66671 6.84079 8.15909 8.33317 10 8.33317Z" fill="#3D3D3D"/>
</svg>
